<svg xmlns="http://www.w3.org/2000/svg" width="60" viewBox="0 0 60 30" height="30" version="1.0"><defs><clipPath id="a"><path d="M 0.96875 0 L 59.03125 0 L 59.03125 29.03125 L 0.96875 29.03125 Z M 0.96875 0"/></clipPath><clipPath id="b"><path d="M 0.96875 8 L 13 8 L 13 21 L 0.96875 21 Z M 0.96875 8"/></clipPath></defs><g clip-path="url(#a)" fill="#FFF"><path d="M 0.96875 0 L 59.03125 0 L 59.03125 36.289062 L 0.96875 36.289062 Z M 0.96875 0"/><path d="M 0.96875 0 L 59.03125 0 L 59.03125 29.03125 L 0.96875 29.03125 Z M 0.96875 0"/><path d="M 0.96875 0 L 59.03125 0 L 59.03125 29.03125 L 0.96875 29.03125 Z M 0.96875 0"/></g><g clip-path="url(#b)"><path fill="#072B5B" d="M 0.96875 8.457031 L 12.902344 8.457031 L 12.902344 20.394531 L 0.96875 20.394531 L 0.96875 8.457031"/></g><g fill="#FFF"><g><g><path d="M 3.96875 0 L 3.371094 -1.964844 L 2.183594 -5.933594 L 0.148438 -5.933594 L 2.25 0 Z M 4.734375 -0.777344 L 3.890625 -3.570312 L 4.605469 -5.933594 L 6.554688 -5.933594 Z M 4.734375 -0.777344" transform="translate(3.728 17.815)"/></g></g></g><g fill="#072B5B"><g><g><path d="M 4.65625 -2.847656 L 4.332031 -0.832031 C 4.296875 -0.625 4.175781 -0.472656 3.972656 -0.472656 L 1.480469 -0.472656 C 1.277344 -0.472656 1.15625 -0.625 1.125 -0.832031 L 0.796875 -2.847656 L 0.324219 -2.847656 L 0.652344 -0.832031 C 0.730469 -0.351562 1 0 1.480469 0 L 3.972656 0 C 4.453125 0 4.726562 -0.351562 4.804688 -0.832031 L 5.128906 -2.847656 Z M 4.65625 -2.847656" transform="translate(15.53 15.586)"/></g></g></g><g fill="#072B5B"><g><g><path d="M 4.296875 -2.847656 L 1.15625 -2.847656 C 0.675781 -2.847656 0.324219 -2.5 0.324219 -2.019531 L 0.324219 -0.832031 C 0.324219 -0.351562 0.675781 0 1.15625 0 L 4.296875 0 C 4.777344 0 5.128906 -0.351562 5.128906 -0.832031 L 5.128906 -2.019531 C 5.128906 -2.5 4.777344 -2.847656 4.296875 -2.847656 Z M 0.796875 -0.832031 L 0.796875 -2.019531 C 0.796875 -2.222656 0.953125 -2.378906 1.15625 -2.378906 L 4.296875 -2.378906 C 4.503906 -2.378906 4.65625 -2.222656 4.65625 -2.019531 L 4.65625 -0.832031 C 4.65625 -0.625 4.503906 -0.472656 4.296875 -0.472656 L 1.15625 -0.472656 C 0.953125 -0.472656 0.796875 -0.625 0.796875 -0.832031 Z M 0.796875 -0.832031" transform="translate(20.985 15.586)"/></g></g></g><g fill="#072B5B"><g><g><path d="M 0.324219 0 L 0.796875 0 L 0.796875 -1.1875 L 3.703125 -1.1875 C 4.253906 -1.1875 4.65625 -0.785156 4.65625 -0.234375 L 4.65625 0 L 5.128906 0 L 5.128906 -0.234375 C 5.128906 -0.664062 4.96875 -1.03125 4.703125 -1.28125 C 4.960938 -1.417969 5.128906 -1.6875 5.128906 -2.019531 C 5.128906 -2.5 4.777344 -2.847656 4.296875 -2.847656 L 0.324219 -2.847656 Z M 0.796875 -1.660156 L 0.796875 -2.378906 L 4.296875 -2.378906 C 4.503906 -2.378906 4.65625 -2.222656 4.65625 -2.019531 C 4.65625 -1.816406 4.503906 -1.660156 4.296875 -1.660156 Z M 0.796875 -1.660156" transform="translate(26.44 15.586)"/></g></g></g><g fill="#072B5B"><g><g><path d="M 2.652344 0 L 3.125 0 L 3.125 -2.378906 L 5.453125 -2.378906 L 5.453125 -2.847656 L 0.324219 -2.847656 L 0.324219 -2.378906 L 2.652344 -2.378906 Z M 2.652344 0" transform="translate(31.893 15.586)"/></g></g></g><g fill="#072B5B"><g><g><path d="M 0.324219 -2.019531 L 0.324219 -0.832031 C 0.324219 -0.351562 0.675781 0 1.15625 0 L 5.128906 0 L 5.128906 -0.472656 L 1.15625 -0.472656 C 0.953125 -0.472656 0.796875 -0.625 0.796875 -0.832031 L 0.796875 -1.1875 L 5.128906 -1.1875 L 5.128906 -1.660156 L 0.796875 -1.660156 L 0.796875 -2.019531 C 0.796875 -2.222656 0.953125 -2.378906 1.15625 -2.378906 L 5.128906 -2.378906 L 5.128906 -2.847656 L 1.15625 -2.847656 C 0.675781 -2.847656 0.324219 -2.5 0.324219 -2.019531 Z M 0.324219 -2.019531" transform="translate(37.673 15.586)"/></g></g></g><g fill="#072B5B"><g><g><path d="M 4.65625 -2.019531 L 4.65625 0 L 5.128906 0 L 5.128906 -2.019531 C 5.128906 -2.5 4.777344 -2.847656 4.296875 -2.847656 L 1.15625 -2.847656 C 0.675781 -2.847656 0.324219 -2.5 0.324219 -2.019531 L 0.324219 0 L 0.796875 0 L 0.796875 -2.019531 C 0.796875 -2.222656 0.953125 -2.378906 1.15625 -2.378906 L 4.296875 -2.378906 C 4.503906 -2.378906 4.65625 -2.222656 4.65625 -2.019531 Z M 4.65625 -2.019531" transform="translate(43.127 15.586)"/></g></g></g><g fill="#072B5B"><g><g><path d="M 4.296875 -1.660156 L 1.15625 -1.660156 C 0.953125 -1.660156 0.796875 -1.816406 0.796875 -2.019531 C 0.796875 -2.222656 0.953125 -2.378906 1.15625 -2.378906 L 5.007812 -2.378906 L 5.007812 -2.847656 L 1.15625 -2.847656 C 0.675781 -2.847656 0.324219 -2.5 0.324219 -2.019531 C 0.324219 -1.539062 0.675781 -1.1875 1.15625 -1.1875 L 4.296875 -1.1875 C 4.503906 -1.1875 4.65625 -1.035156 4.65625 -0.832031 C 4.65625 -0.625 4.503906 -0.472656 4.296875 -0.472656 L 0.449219 -0.472656 L 0.449219 0 L 4.296875 0 C 4.777344 0 5.128906 -0.351562 5.128906 -0.832031 C 5.128906 -1.3125 4.777344 -1.660156 4.296875 -1.660156 Z M 4.296875 -1.660156" transform="translate(48.581 15.586)"/></g></g></g></svg>