<svg xmlns="http://www.w3.org/2000/svg" width="375" viewBox="0 0 375 375" height="375" version="1.0"><path fill="#FFF" d="M 37.5 155.355469 L 101.734375 155.355469 L 101.734375 219.589844 L 37.5 219.589844 L 37.5 155.355469"/><g fill="#072B5B"><g><g><path d="M 21.441406 0 L 18.226562 -10.628906 L 11.792969 -32.070312 L 0.792969 -32.070312 L 12.164062 0 Z M 25.589844 -4.195312 L 21.023438 -19.296875 L 24.890625 -32.070312 L 35.425781 -32.070312 Z M 25.589844 -4.195312" transform="translate(52.419 205.85)"/></g></g></g><g fill="#FFF"><g><g><path d="M 25.164062 -15.398438 L 23.40625 -4.488281 C 23.230469 -3.386719 22.570312 -2.550781 21.46875 -2.550781 L 8.007812 -2.550781 C 6.90625 -2.550781 6.246094 -3.386719 6.070312 -4.488281 L 4.3125 -15.398438 L 1.761719 -15.398438 L 3.519531 -4.488281 C 3.9375 -1.890625 5.410156 0 8.007812 0 L 21.46875 0 C 24.066406 0 25.539062 -1.890625 25.957031 -4.488281 L 27.71875 -15.398438 Z M 25.164062 -15.398438" transform="translate(116.2 193.875)"/></g></g></g><g fill="#FFF"><g><g><path d="M 23.230469 -15.398438 L 6.246094 -15.398438 C 3.652344 -15.398438 1.761719 -13.507812 1.761719 -10.910156 L 1.761719 -4.488281 C 1.761719 -1.890625 3.652344 0 6.246094 0 L 23.230469 0 C 25.824219 0 27.71875 -1.890625 27.71875 -4.488281 L 27.71875 -10.910156 C 27.71875 -13.507812 25.824219 -15.398438 23.230469 -15.398438 Z M 4.3125 -4.488281 L 4.3125 -10.910156 C 4.3125 -12.011719 5.148438 -12.847656 6.246094 -12.847656 L 23.230469 -12.847656 C 24.328125 -12.847656 25.164062 -12.011719 25.164062 -10.910156 L 25.164062 -4.488281 C 25.164062 -3.386719 24.328125 -2.550781 23.230469 -2.550781 L 6.246094 -2.550781 C 5.148438 -2.550781 4.3125 -3.386719 4.3125 -4.488281 Z M 4.3125 -4.488281" transform="translate(145.674 193.875)"/></g></g></g><g fill="#FFF"><g><g><path d="M 1.761719 0 L 4.3125 0 L 4.3125 -6.421875 L 20.019531 -6.421875 C 22.988281 -6.421875 25.164062 -4.246094 25.164062 -1.277344 L 25.164062 0 L 27.71875 0 L 27.71875 -1.277344 C 27.71875 -3.585938 26.859375 -5.566406 25.40625 -6.929688 C 26.816406 -7.65625 27.71875 -9.128906 27.71875 -10.910156 C 27.71875 -13.507812 25.824219 -15.398438 23.230469 -15.398438 L 1.761719 -15.398438 Z M 4.3125 -8.976562 L 4.3125 -12.847656 L 23.230469 -12.847656 C 24.328125 -12.847656 25.164062 -12.011719 25.164062 -10.910156 C 25.164062 -9.8125 24.328125 -8.976562 23.230469 -8.976562 Z M 4.3125 -8.976562" transform="translate(175.15 193.875)"/></g></g></g><g fill="#FFF"><g><g><path d="M 14.34375 0 L 16.894531 0 L 16.894531 -12.847656 L 29.476562 -12.847656 L 29.476562 -15.398438 L 1.761719 -15.398438 L 1.761719 -12.847656 L 14.34375 -12.847656 Z M 14.34375 0" transform="translate(204.624 193.875)"/></g></g></g><g fill="#FFF"><g><g><path d="M 1.761719 -10.910156 L 1.761719 -4.488281 C 1.761719 -1.890625 3.652344 0 6.246094 0 L 27.71875 0 L 27.71875 -2.550781 L 6.246094 -2.550781 C 5.148438 -2.550781 4.3125 -3.386719 4.3125 -4.488281 L 4.3125 -6.421875 L 27.71875 -6.421875 L 27.71875 -8.976562 L 4.3125 -8.976562 L 4.3125 -10.910156 C 4.3125 -12.011719 5.148438 -12.847656 6.246094 -12.847656 L 27.71875 -12.847656 L 27.71875 -15.398438 L 6.246094 -15.398438 C 3.652344 -15.398438 1.761719 -13.507812 1.761719 -10.910156 Z M 1.761719 -10.910156" transform="translate(235.858 193.875)"/></g></g></g><g fill="#FFF"><g><g><path d="M 25.164062 -10.910156 L 25.164062 0 L 27.71875 0 L 27.71875 -10.910156 C 27.71875 -13.507812 25.824219 -15.398438 23.230469 -15.398438 L 6.246094 -15.398438 C 3.652344 -15.398438 1.761719 -13.507812 1.761719 -10.910156 L 1.761719 0 L 4.3125 0 L 4.3125 -10.910156 C 4.3125 -12.011719 5.148438 -12.847656 6.246094 -12.847656 L 23.230469 -12.847656 C 24.328125 -12.847656 25.164062 -12.011719 25.164062 -10.910156 Z M 25.164062 -10.910156" transform="translate(265.333 193.875)"/></g></g></g><g fill="#FFF"><g><g><path d="M 23.230469 -8.976562 L 6.246094 -8.976562 C 5.148438 -8.976562 4.3125 -9.8125 4.3125 -10.910156 C 4.3125 -12.011719 5.148438 -12.847656 6.246094 -12.847656 L 27.058594 -12.847656 L 27.058594 -15.398438 L 6.246094 -15.398438 C 3.652344 -15.398438 1.761719 -13.507812 1.761719 -10.910156 C 1.761719 -8.316406 3.652344 -6.421875 6.246094 -6.421875 L 23.230469 -6.421875 C 24.328125 -6.421875 25.164062 -5.585938 25.164062 -4.488281 C 25.164062 -3.386719 24.328125 -2.550781 23.230469 -2.550781 L 2.417969 -2.550781 L 2.417969 0 L 23.230469 0 C 25.824219 0 27.71875 -1.890625 27.71875 -4.488281 C 27.71875 -7.082031 25.824219 -8.976562 23.230469 -8.976562 Z M 23.230469 -8.976562" transform="translate(294.808 193.875)"/></g></g></g></svg>